<?xml version="1.0" encoding="utf-8"?><!DOCTYPE svg PUBLIC "-//W3C//DTD SVG 1.1//EN" "http://www.w3.org/Graphics/SVG/1.1/DTD/svg11.dtd"><svg version="1.1" id="Contours" xmlns="http://www.w3.org/2000/svg" xmlns:xlink="http://www.w3.org/1999/xlink" x="0px" y="0px" width="100%" height="100%" viewBox="0.000002 0.000001 1779.473755 1839.926514" enable-background="new 0 0 1779.473755 1779.473755" xml:space="preserve" stroke="black" fill="none" stroke-linecap='round' stroke-linejoin='round'><path class="selected"  fill="#000000" opacity="1.000000" stroke="none" 
 	d="
M541.112531 1548.237914 C537.562788 1552.454344 534.390486 1556.535277 530.940656 1560.366698 C517.915998 1574.831908 504.789594 1589.205443 491.724043 1603.633910 C482.511518 1613.807494 473.288496 1623.972289 464.155134 1634.216796 C451.147321 1648.806884 438.226118 1663.474242 425.250044 1678.092650 C419.617719 1684.437621 413.986921 1690.785155 408.274946 1697.058104 C394.160993 1712.558348 379.969160 1727.987914 365.870466 1743.502074 C357.087751 1753.166503 348.411909 1762.927977 339.698011 1772.654784 C325.433759 1788.576903 311.168104 1804.497557 296.923200 1820.436888 C291.823957 1826.142577 286.722700 1831.848632 281.740583 1837.656005 C279.114424 1840.716918 277.066847 1840.597289 274.056837 1837.813109 C260.256880 1825.048827 246.252455 1812.505004 232.284010 1799.923583 C222.951704 1791.517699 213.534956 1783.205687 204.194319 1774.808959 C190.585005 1762.574828 177.007917 1750.304930 163.421308 1738.045531 C153.107862 1728.739501 142.795118 1719.432494 132.492292 1710.114623 C118.425855 1697.393309 104.398542 1684.628417 90.297498 1671.945555 C81.577863 1664.102782 72.707197 1656.427977 63.984846 1648.588378 C50.003156 1636.021605 36.091062 1623.377562 22.144193 1610.771971 C15.356046 1604.636718 8.612623 1598.449950 1.731397 1592.420531 C-0.797426 1590.204711 -0.365450 1588.741942 1.796568 1586.444579 C14.168485 1573.297362 26.398344 1560.015746 38.610975 1546.719603 C48.796049 1535.630858 58.870863 1524.440795 69.031416 1513.329344 C80.203108 1501.112059 91.439359 1488.953856 102.605863 1476.731810 C112.536894 1465.861693 122.394895 1454.924803 132.314497 1444.044188 C143.019361 1432.302611 153.756330 1420.590087 164.483167 1408.868529 C175.322370 1397.023925 186.166395 1385.183959 197.008375 1373.342040 C207.850446 1361.500121 218.703016 1349.667723 229.531385 1337.813231 C239.798292 1326.573485 250.024275 1315.296263 260.296797 1304.061644 C271.355818 1291.966918 282.472791 1279.925048 293.518385 1267.818114 C303.217329 1257.187133 312.829206 1246.476561 322.522505 1235.840087 C333.337141 1223.973143 344.206342 1212.156127 355.040174 1200.306639 C365.536909 1188.825682 376.023176 1177.335326 386.506025 1165.841918 C396.764570 1154.594359 407.010664 1143.335570 417.266279 1132.085448 C427.634077 1120.712279 437.989179 1109.327513 448.382185 1097.977416 C459.674604 1085.644896 471.026228 1073.366576 482.310774 1061.026854 C492.359358 1050.038573 502.337995 1038.986571 512.372419 1027.985228 C523.080122 1016.246093 533.821272 1004.537474 544.539900 992.808348 C555.033857 981.325072 565.515791 969.830687 576.007063 958.344725 C586.610456 946.735839 597.199629 935.113890 607.840193 923.539061 C610.199445 920.972777 609.993025 918.730773 607.673994 916.267272 C598.206465 906.210082 588.746259 896.145018 579.386823 885.987609 C564.843000 870.203734 550.376020 854.349059 535.891462 838.510680 C529.154829 831.144347 522.476301 823.724852 515.731672 816.365966 C500.780012 800.052245 485.779768 783.782958 470.844526 767.454222 C461.019697 756.712645 451.289961 745.884154 441.488508 735.121154 C427.597822 719.867797 413.670149 704.648253 399.778852 689.395446 C393.505781 682.507628 387.321638 675.538512 381.028669 668.669066 C365.968366 652.229064 350.851118 635.841246 335.790846 619.401183 C329.497877 612.531737 323.335096 605.542968 317.036604 598.678588 C301.625227 581.882811 286.133192 565.160826 270.744581 548.344237 C261.479261 538.219115 252.390058 527.932982 243.144850 517.789305 C228.687147 501.926451 214.141828 486.143492 199.680616 470.283873 C194.188703 464.260924 188.906904 458.045714 183.391096 452.045287 C167.288343 434.527892 151.082075 417.105590 134.983198 399.584624 C125.134138 388.865508 115.440367 378.003844 105.618208 367.259795 C94.223341 354.795378 82.746214 342.406127 71.338331 329.953551 C60.942686 318.605895 50.589628 307.219268 40.221891 295.846099 C29.966261 284.595946 19.709699 273.346739 9.466993 262.084838 C6.612806 258.946685 3.663481 255.875579 1.074781 252.528563 C0.396284 251.651274 0.295851 249.220549 0.963056 248.581053 C7.220960 242.583007 13.693388 236.808135 20.124891 230.992064 C23.996671 227.490813 27.937101 224.065123 31.792326 220.545928 C43.650297 209.721465 55.448103 198.830901 67.334745 188.038115 C77.002989 179.259581 86.784071 170.605498 96.481825 161.859343 C110.442137 149.268828 124.353468 136.623946 138.321882 124.042479 C147.654310 115.636718 157.077802 107.332061 166.410230 98.926299 C180.378675 86.344832 194.300245 73.711333 208.246778 61.105529 C218.552290 51.790663 228.834455 42.449629 239.183973 33.183837 C251.206251 22.420439 263.239668 11.667426 275.446272 1.115859 C276.408033 0.284468 279.513288 0.338942 280.352094 1.207907 C287.976331 9.106032 295.373304 17.227210 302.719679 25.388495 C306.502943 29.591414 309.930555 34.115020 313.723676 38.308425 C327.339643 53.361251 341.059797 68.319762 354.707472 83.343962 C364.047834 93.626326 373.359785 103.934752 382.636945 114.274123 C396.802290 130.061324 410.926557 145.885314 425.068281 161.693663 C433.553327 171.178679 442.055586 180.648345 450.519331 190.152312 C463.851057 205.122466 477.146528 220.124907 490.478437 235.094786 C496.342390 241.679167 502.223921 248.248503 508.157758 254.769866 C522.042097 270.028929 536.000959 285.220275 549.854414 300.507292 C558.064741 309.567351 566.100508 318.785308 574.270551 327.882140 C586.498457 341.496978 598.787397 355.057006 611.027754 368.660735 C619.651350 378.244872 628.266279 387.837218 636.833601 397.471739 C649.822614 412.078673 662.740644 426.748839 675.741194 441.345458 C682.158613 448.550902 688.683882 455.660460 695.176801 462.798461 C708.722883 477.690123 722.309126 492.545226 735.821577 507.467284 C744.363752 516.900634 752.784529 526.443663 761.291609 535.908873 C773.413130 549.395568 785.569319 562.851073 797.700422 576.329283 C806.548200 586.159545 815.371931 596.011473 824.219709 605.841735 C836.350752 619.319884 848.566999 632.722167 860.608625 646.279784 C869.335737 656.105651 877.778974 666.183348 886.486128 676.027343 C888.493025 678.296263 890.867658 679.002684 893.366682 676.050841 C899.976667 668.242675 906.671369 660.501586 913.502546 652.886290 C926.277693 638.644591 939.190290 624.526366 952.012556 610.326659 C960.764509 600.634276 969.494978 590.921935 978.172224 581.162474 C991.049543 566.678893 1003.835676 552.114012 1016.731306 537.646788 C1023.483869 530.071288 1030.388777 522.631774 1037.221784 515.127928 C1050.775617 500.243285 1064.352644 485.379759 1077.870588 470.462584 C1086.639631 460.785765 1095.315290 451.024230 1104.043195 441.310057 C1115.940046 428.068968 1127.848860 414.838439 1139.749006 401.600341 C1148.590681 391.764556 1157.419294 381.917144 1166.267072 372.086913 C1178.398176 358.608763 1190.554426 345.153289 1202.676008 331.666564 C1211.183088 322.201384 1219.652693 312.702513 1228.134504 303.214537 C1239.332624 290.688079 1250.524397 278.155791 1261.722517 265.629332 C1270.204328 256.141356 1278.654890 246.625243 1287.186628 237.182463 C1297.280500 226.010497 1307.484113 214.937590 1317.571638 203.760009 C1329.163191 190.915862 1340.674299 177.999327 1352.230207 165.123015 C1364.008283 151.998992 1375.803571 138.890334 1387.581770 125.766310 C1399.137434 112.889937 1410.689070 100.009871 1422.227888 87.118285 C1433.433820 74.598830 1444.619001 62.060698 1455.817121 49.534209 C1464.298933 40.046263 1472.786726 30.563674 1481.271711 21.078704 C1486.928449 14.755385 1492.635725 8.476226 1498.219099 2.088820 C1500.767195 -0.826173 1502.728254 -0.549875 1505.542219 2.046782 C1519.357527 14.794882 1533.351423 27.349929 1547.319929 39.931456 C1556.652448 48.337111 1566.086286 56.630324 1575.404890 65.051253 C1586.699445 75.257720 1597.890363 85.578871 1609.182356 95.788222 C1618.622175 104.323149 1628.165754 112.743392 1637.622785 121.259551 C1651.468733 133.728224 1665.271223 146.245314 1679.106062 158.726287 C1689.049787 167.696837 1699.017927 176.640227 1708.972517 185.598723 C1722.327741 197.617583 1735.666609 209.654601 1749.039167 221.654174 C1758.263532 229.931304 1767.452131 238.251677 1776.825178 246.357939 C1780.192610 249.270293 1780.376325 251.070433 1777.043806 254.525054 C1764.743513 267.275756 1752.879621 280.447661 1740.875715 293.483336 C1733.662580 301.316191 1726.490339 309.186797 1719.305891 317.046080 C1705.161726 332.518767 1691.005476 347.980620 1676.885603 363.475615 C1667.192854 374.112364 1657.578718 384.820952 1647.882673 395.454650 C1636.952497 407.441588 1625.969709 419.380553 1615.009870 431.340392 C1607.703352 439.313658 1600.393415 447.283690 1593.091169 455.260741 C1578.711164 470.969237 1564.322492 486.669738 1549.962629 502.396483 C1539.922346 513.392272 1529.948957 524.449156 1519.900373 535.437316 C1508.615827 547.777159 1497.248274 560.040953 1485.976789 572.392577 C1476.500959 582.776610 1467.147199 593.271910 1457.674177 603.658507 C1446.518293 615.890258 1435.274153 628.041259 1424.102400 640.258544 C1413.941877 651.369994 1403.836042 662.531432 1393.689680 673.655883 C1383.094587 685.272277 1372.466779 696.859008 1361.877180 708.480590 C1351.960432 719.363585 1342.111311 730.308776 1332.166364 741.165953 C1320.421980 753.987731 1308.569929 766.710936 1296.832990 779.539366 C1287.231428 790.033934 1277.767805 800.654601 1268.175886 811.158019 C1253.478132 827.252562 1238.705671 843.278868 1223.997663 859.364196 C1213.949690 870.353026 1203.969221 881.403380 1193.936628 892.406310 C1186.650007 900.397643 1179.322737 908.352111 1172.023420 916.331908 C1169.638654 918.939147 1169.312116 920.994261 1172.205793 924.015868 C1185.267195 937.654540 1198.013166 951.595702 1210.827253 965.469969 C1217.712873 972.925170 1224.494245 980.476561 1231.344343 987.964720 C1245.831159 1003.801146 1260.334944 1019.622069 1274.826765 1035.453734 C1285.555158 1047.173949 1296.286970 1058.891112 1306.997175 1070.627928 C1320.679060 1085.621093 1334.355695 1100.619017 1348.004011 1115.642699 C1353.820661 1122.045531 1359.493025 1128.580321 1365.348249 1134.947142 C1377.794660 1148.480712 1390.366316 1161.899413 1402.794294 1175.449828 C1412.183698 1185.687010 1421.389021 1196.092772 1430.750593 1206.355712 C1442.019270 1218.709716 1453.376814 1230.982787 1464.677107 1243.308104 C1475.414778 1255.019774 1486.135237 1266.747313 1496.850813 1278.479247 C1510.763777 1293.712279 1524.667585 1308.953734 1538.569319 1324.197020 C1548.827497 1335.444823 1559.062605 1346.713622 1569.332380 1357.950804 C1580.275984 1369.925414 1591.256574 1381.866332 1602.206281 1393.835448 C1616.356306 1409.302855 1630.505964 1424.770507 1644.628523 1440.263060 C1654.435407 1451.021117 1664.161482 1461.852904 1673.986555 1472.594481 C1685.497053 1485.178832 1697.099348 1497.679198 1708.617536 1510.256468 C1718.786482 1521.360228 1728.885237 1532.528075 1739.031721 1543.652465 C1749.626936 1555.268920 1760.252790 1566.857176 1770.832990 1578.487303 C1772.007063 1579.778075 1772.842024 1581.384642 1774.051130 1582.635009 C1781.400007 1590.235228 1781.394148 1590.183715 1773.330671 1597.040404 C1768.134870 1601.458739 1762.958357 1605.905028 1757.902815 1610.482054 C1749.515730 1618.075438 1741.323835 1625.885985 1732.885603 1633.421141 C1718.802351 1645.997069 1704.548200 1658.381835 1690.446882 1670.937865 C1682.619367 1677.907592 1674.954084 1685.059691 1667.218488 1692.132689 C1651.624250 1706.390868 1636.065168 1720.687621 1620.427229 1734.897582 C1611.008894 1743.455931 1601.453230 1751.863036 1591.987898 1760.370116 C1578.501325 1772.491698 1565.039533 1784.640868 1551.570051 1796.781371 C1541.375349 1805.970702 1531.206159 1815.188475 1520.984724 1824.347899 C1515.533796 1829.232543 1510.116316 1834.171874 1504.391950 1838.719115 C1503.306013 1839.581542 1500.031965 1839.475951 1499.151106 1838.529540 C1491.504743 1830.311766 1484.201643 1821.775511 1476.738264 1813.385741 C1473.034040 1809.221801 1469.202375 1805.171263 1465.437605 1801.061156 C1454.592878 1789.221801 1443.715193 1777.411986 1432.922468 1765.525511 C1424.144026 1755.857176 1415.475202 1746.089354 1406.747297 1736.374999 C1394.850324 1723.134032 1382.941511 1709.903563 1371.041364 1696.665526 C1362.199690 1686.829833 1353.358503 1676.993529 1344.526228 1667.149291 C1332.972273 1654.271361 1321.428205 1641.384520 1309.877424 1628.503661 C1301.158674 1618.781127 1292.449568 1609.050048 1283.712385 1599.343993 C1271.468977 1585.743163 1259.182600 1572.180907 1246.954695 1558.566039 C1238.784406 1549.469359 1230.713117 1540.283812 1222.546003 1531.184325 C1210.433943 1517.689086 1198.271223 1504.239379 1186.139387 1490.761962 C1174.230207 1477.531981 1162.322614 1464.300658 1150.433088 1451.052977 C1138.988264 1438.300536 1127.581281 1425.514159 1116.132185 1412.765746 C1106.961530 1402.554320 1097.744978 1392.384154 1088.561994 1382.183959 C1076.651960 1368.954589 1064.736311 1355.730468 1052.858869 1342.472045 C1044.811262 1333.488768 1036.874861 1324.405760 1028.800031 1315.447142 C1015.879255 1301.112426 1002.855940 1286.869994 989.932356 1272.537596 C981.744367 1263.457030 973.679914 1254.265258 965.522321 1245.157225 C953.757185 1232.021483 941.965437 1218.909667 930.170637 1205.800658 C920.990583 1195.597655 911.745954 1185.452513 902.620710 1175.200926 C899.523908 1171.722045 896.677107 1168.018187 893.767439 1164.376097 C891.690717 1161.776732 888.323164 1161.702880 886.152815 1164.179930 C878.753034 1172.625853 871.381635 1181.098387 863.874800 1189.448729 C848.248091 1206.831298 832.523298 1224.125731 816.875105 1241.489257 C808.466779 1250.819335 800.164716 1260.245116 791.759016 1269.577391 C779.177473 1283.545897 766.522810 1297.448485 753.944380 1311.419676 C742.479597 1324.153929 731.087080 1336.953246 719.640486 1349.703978 C704.804121 1366.230590 689.944502 1382.736327 675.097578 1399.253539 C666.256330 1409.089598 657.422712 1418.932738 648.580976 1428.768431 C636.680769 1442.006468 624.764692 1455.230345 612.877668 1468.480223 C604.490278 1477.829222 596.163130 1487.232421 587.766584 1496.573119 C575.532453 1510.182372 563.261701 1523.758788 551.002729 1537.345702 C547.796308 1540.899413 544.576216 1544.440795 541.112531 1548.237914 z"/></svg>