<?xml version="1.0" encoding="utf-8"?><!DOCTYPE svg PUBLIC "-//W3C//DTD SVG 1.1//EN" "http://www.w3.org/Graphics/SVG/1.1/DTD/svg11.dtd"><svg version="1.1" id="Contours" xmlns="http://www.w3.org/2000/svg" xmlns:xlink="http://www.w3.org/1999/xlink" x="0px" y="0px" width="100%" height="100%" viewBox="0.000000 -0.000001 1850.211182 1850.229736" enable-background="new 0 0 1850.211182 1850.211182" xml:space="preserve" stroke="black" fill="none" stroke-linecap='round' stroke-linejoin='round'><path class="selected"  fill="#000000" opacity="1.000000" stroke="none" 
 	d="
M739.112625 1527.111741 C739.112625 1390.452317 739.112625 1254.292772 739.112625 1118.133348 C739.112625 1111.462083 738.766983 1111.111985 732.170364 1111.111985 C490.183120 1111.111863 248.195907 1111.093919 6.208732 1111.231614 C1.031502 1111.234544 -0.002503 1109.734178 0.003158 1104.829637 C0.142906 983.669481 0.144172 862.509080 0.000023 741.348985 C-0.005890 736.379503 1.143905 734.991746 6.253624 734.994554 C248.074142 735.128953 489.894729 735.099900 731.715286 735.179979 C737.789932 735.181993 739.189712 734.422593 739.187149 727.545335 C739.097854 487.058030 739.126236 246.570695 739.013321 6.083429 C739.011062 1.359620 740.167984 -0.002730 745.019180 0.002816 C866.512588 0.141496 988.006180 0.141649 1109.499710 0.000016 C1114.251541 -0.005530 1115.210159 1.389817 1115.208084 5.877145 C1115.100174 246.531083 1115.126175 487.185045 1115.036453 727.839036 C1115.034134 734.003343 1116.298538 735.189256 1122.303665 735.187059 C1362.790970 735.098741 1603.278274 735.112230 1843.765579 735.108812 C1849.762893 735.108690 1850.143020 734.065110 1850.140457 741.642808 C1850.101028 862.803087 1850.086502 983.963304 1850.211136 1105.123460 C1850.215896 1109.816331 1849.105545 1111.223802 1844.222610 1111.221238 C1603.568680 1111.096238 1362.914627 1111.124559 1122.260696 1111.036790 C1116.346512 1111.034715 1115.033645 1112.171312 1115.035965 1118.427415 C1115.126541 1360.247972 1115.096512 1602.068528 1115.224563 1843.889085 C1115.227249 1848.878953 1114.045852 1850.236009 1108.956985 1850.229661 C987.630203 1850.077928 866.303238 1850.080003 744.976516 1850.225877 C740.041214 1850.231858 739.011795 1848.739915 739.017288 1844.097215 C739.141189 1738.602098 739.112625 1633.106981 739.112625 1527.111741 z"/></svg>