<?xml version="1.0" encoding="UTF-8" standalone="no"?>
<svg
   xmlns="http://www.w3.org/2000/svg"
   viewBox="0 0 32 32"
   width="100%"
   height="100%"
   id="svg1">
  <defs>
    <!-- Add styles or reusable definitions here if needed -->
  </defs>
  <g id="layer1">
    <!-- File Outline -->
    <path
       id="rect3"
       d="M5.0087,4.8417 L18.6444,4.7236 L22.8756,9.0130 L26.9682,13.1436 L27.0469,27.4921 H5.0087 Z"
       fill="none"
       stroke="#000000"
       stroke-width="1" />
    <!-- Fold Line -->
    <path
       id="path13"
       d="M18.4765,4.6191 L26.9356,13.1896"
       fill="none"
       stroke="#000000"
       stroke-width="1" />
    <!-- Fold Interior Line -->
    <path
       id="path50"
       d="M18.5348,4.6042 L18.7709,13.6945 L26.7987,13.7338"
       fill="none"
       stroke="#000000"
       stroke-width="1" />

    <!-- Simlink Symbol: stylized chain link in corner -->
    <g id="simlink-symbol" transform="translate(20, 20) scale(0.6)">
      <!-- First link (top right loop) -->
      <path
         d="M1,3 C1,1.9 1.9,1 3,1 H5 C6.1,1 7,1.9 7,3 C7,4.1 6.1,5 5,5 H3 C1.9,5 1,4.1 1,3 Z"
         fill="none"
         stroke="#000000"
         stroke-width="1" />
      
      <!-- Second link (bottom left loop) -->
      <path
         d="M5,5 C5,6.1 4.1,7 3,7 H1 C-0.1,7 -1,6.1 -1,5 C-1,3.9 -0.1,3 1,3 H3 C4.1,3 5,3.9 5,5 Z"
         fill="none"
         stroke="#000000"
         stroke-width="1" />
      </g>

  </g>
</svg>
