<?xml version="1.0" ?>
<!DOCTYPE svg
  PUBLIC '-//W3C//DTD SVG 1.1//EN'
  'http://www.w3.org/Graphics/SVG/1.1/DTD/svg11.dtd'>
<svg xmlns="http://www.w3.org/2000/svg" xmlns:xlink="http://www.w3.org/1999/xlink" version="1.1" id="Contours" x="0px" y="0px" width="100%" height="100%" viewBox="0.000000 -0.000000 1634.000000 1254.018188" enable-background="new 0 0 1634.000000 1634.000000" xml:space="preserve" stroke="black" fill="none" stroke-linecap="round" stroke-linejoin="round">
  <path class="selected" fill="#000000" opacity="1.000000" stroke="none" d=" M0.000000 171.009101 C0.000000 169.842429 0.000000 168.675772 0.250000 167.259101 C1.675812 162.499961 1.805654 157.308615 4.219797 153.607123 C12.064023 141.579886 20.685002 130.054938 29.117564 118.416777 C40.357365 102.904212 51.688427 87.457663 63.003838 71.999999 C72.641762 58.833892 82.354134 45.722098 91.954186 32.528514 C97.805504 24.486907 103.419053 16.271285 109.329430 8.274277 C111.056229 5.937841 113.340043 3.971250 115.570397 2.072210 C116.319565 1.434324 117.694535 1.531412 118.783471 1.292568 C117.490387 1.198079 116.197327 1.021527 114.904206 1.021030 C76.602807 1.006330 38.301404 1.009101 0.000000 1.009101 C0.166667 0.675767 0.315920 0.065299 0.502794 0.053556 C1.830884 -0.029895 3.166667 0.009101 4.500000 0.009101 C547.666687 0.009101 1090.833375 0.009101 1633.750000 0.509101 C1595.837769 1.009101 1558.175416 1.005264 1520.513184 1.023631 C1519.060791 1.024339 1517.608277 1.238538 1516.155884 1.353271 C1517.323243 1.905234 1518.573243 2.332884 1519.637940 3.039487 C1521.077393 3.994831 1522.698609 4.927859 1523.684571 6.277497 C1538.720948 26.859677 1553.668946 47.506377 1568.631836 68.142134 C1587.961548 94.800147 1607.281861 121.464995 1626.616333 148.119544 C1630.916993 154.048209 1633.211304 160.146399 1633.205201 167.975928 C1632.963868 475.132788 1632.989014 782.289923 1633.086792 1089.446967 C1633.088501 1094.921698 1630.833252 1099.298041 1628.014527 1103.358954 C1618.189942 1117.513495 1608.057251 1131.454901 1597.992310 1145.441718 C1588.377930 1158.802558 1578.716919 1172.130072 1569.049927 1185.453070 C1555.379395 1204.294013 1541.773438 1223.183295 1527.919434 1241.888617 C1525.372925 1245.326850 1521.802125 1248.013861 1518.649903 1250.990180 C1517.931641 1251.668402 1516.988648 1252.108466 1516.149048 1252.658026 C1517.100586 1252.775092 1518.052002 1252.993964 1519.003541 1252.994452 C1557.335694 1253.011664 1595.667847 1253.009101 1634.000000 1253.009101 C1633.833375 1253.342475 1633.684205 1253.952948 1633.497193 1253.964667 C1632.169068 1254.048041 1630.833375 1254.009101 1629.500000 1254.009101 C1086.333375 1254.009101 543.166687 1254.009101 0.250000 1253.509101 C37.823803 1253.009101 75.147606 1253.013617 112.471398 1252.994940 C114.258477 1252.994086 116.045456 1252.787421 117.832474 1252.676581 C116.355195 1252.087592 114.829453 1251.593939 113.418099 1250.875312 C112.523972 1250.420233 111.601021 1249.772040 111.030152 1248.969184 C103.440415 1238.296088 96.000916 1227.515326 88.347184 1216.888617 C72.622300 1195.055854 56.756783 1173.324286 41.014122 1151.504218 C29.176205 1135.096259 17.427042 1118.624213 5.666420 1102.160590 C2.673318 1097.970648 0.903496 1093.536322 0.910096 1088.099555 C1.032669 987.122016 1.000000 886.144171 1.000000 785.166449 C1.000000 582.211188 1.002541 379.255927 0.958637 176.300681 C0.958256 174.536750 0.333333 172.772956 0.000000 171.009101 M507.500000 1186.009101 C582.033570 1186.342475 656.567017 1186.702826 731.100892 1186.961737 C737.627991 1186.984442 744.157410 1186.052436 750.685853 1186.051093 C987.844788 1186.001166 1225.003785 1186.001288 1462.162720 1186.060614 C1467.312134 1186.061957 1471.130860 1184.206000 1474.297242 1180.258246 C1481.640870 1171.102484 1489.150757 1162.080268 1496.535645 1152.957343 C1503.395875 1144.482489 1510.264649 1136.012396 1516.979615 1127.422675 C1525.917603 1115.989203 1534.626709 1104.376532 1543.594727 1092.966986 C1549.507081 1085.445014 1554.473023 1077.415717 1554.903687 1067.676947 C1555.596802 1051.998114 1555.832032 1036.293158 1555.968873 1020.596686 C1556.387208 972.570380 1556.613648 924.542487 1557.022217 876.516059 C1557.228150 852.320502 1557.689698 828.127204 1557.994019 803.932379 C1558.352784 775.405036 1558.948487 746.876959 1558.927247 718.349555 C1558.901734 684.155158 1558.345215 649.961066 1557.996460 615.767096 C1557.679932 584.739325 1557.320801 553.711981 1557.003418 522.684210 C1556.655274 488.656928 1556.308716 454.629523 1556.006226 420.601782 C1555.645997 380.074744 1555.213379 339.547827 1555.035157 299.019873 C1554.870362 261.521826 1555.004639 224.022467 1554.995972 186.523688 C1554.994263 178.924567 1552.609253 172.312049 1547.279297 166.697516 C1543.963990 163.205298 1540.984742 159.371710 1538.061158 155.534033 C1524.462647 137.683615 1511.017212 119.716033 1497.349732 101.918761 C1490.415650 92.889372 1482.885010 84.312125 1476.101319 75.175986 C1472.646729 70.523490 1468.658692 68.011191 1462.935059 68.000777 C1285.245606 67.677619 1107.556153 67.313338 929.866578 67.056761 C913.172364 67.032653 896.477234 67.961554 879.782471 67.966056 C644.956788 68.029418 410.131043 68.057189 175.305588 67.829825 C166.100388 67.820914 160.416672 72.401938 155.260621 78.415679 C149.678040 84.926917 144.886322 92.109709 139.594483 98.878295 C131.801774 108.845687 123.818413 118.663932 116.013848 128.622183 C106.856385 140.306662 97.818978 152.085150 88.699379 163.799430 C83.185608 170.881934 79.256951 178.694632 79.056481 187.784262 C78.552376 210.641669 78.223160 233.504416 78.023057 256.366767 C77.612916 303.226508 77.386933 350.087805 76.977120 396.947547 C76.775727 419.976538 76.291581 443.002936 76.010277 466.031409 C75.635346 496.725165 75.132264 527.419379 75.070908 558.114203 C75.030205 578.474738 75.728867 598.835761 75.985466 619.198004 C76.374375 650.058234 76.679253 680.919562 76.996613 711.780646 C77.344819 745.641303 77.676880 779.502082 77.997231 813.363043 C78.342804 849.890387 78.830758 886.417304 78.959183 922.945380 C79.126183 970.443305 78.989159 1017.942145 79.010224 1065.440619 C79.013924 1073.779853 81.474328 1081.039740 86.979104 1087.677802 C98.516236 1101.589911 109.483284 1115.975043 120.666359 1130.180121 C133.649857 1146.672187 144.956177 1164.434638 159.662232 1179.662055 C163.812165 1183.959296 167.556046 1186.004706 173.010849 1186.004950 C284.173890 1186.010443 395.336945 1186.009101 507.500000 1186.009101"/>
  <path class="selected" fill="#000000" opacity="1.000000" stroke="none" d=" M509.750000 583.259101 C497.598816 570.774604 485.634888 558.600287 473.813691 546.289008 C461.364350 533.323615 449.119233 520.162055 436.663331 507.203131 C417.280030 487.037055 397.983735 466.782019 378.314393 446.897162 C327.756806 395.785620 276.967621 344.903113 226.410386 293.791175 C220.660019 287.977729 215.127762 281.711615 213.007126 273.385047 C210.351105 262.956244 212.753571 253.497138 217.924378 244.248740 C225.340256 230.984854 237.430329 225.592215 251.468812 225.328589 C260.307526 225.162604 268.936982 228.266623 275.782868 235.174369 C305.929352 265.593238 336.207581 295.883032 366.619416 326.036719 C377.013886 336.342963 388.217286 345.835791 398.566285 356.185065 C424.420380 382.039801 449.910645 408.257941 475.705231 434.172675 C511.325745 469.959082 547.091675 505.600745 582.795350 541.304450 C603.062684 561.571845 623.368836 581.800604 643.572144 602.131598 C649.143860 607.738471 651.667969 614.765082 652.005433 622.622260 C652.408570 632.009101 651.967164 641.225470 645.971375 649.111151 C643.544129 652.303473 641.005311 655.462409 638.163941 658.280341 C610.782715 685.436347 583.224549 712.414435 555.913147 739.640326 C506.109406 789.288092 456.439240 839.069892 406.713379 888.795722 C400.841889 894.667182 394.718598 900.310980 389.157105 906.462653 C380.470215 916.071234 369.984742 923.733710 361.154938 933.202948 C351.841553 943.190741 341.908417 952.600653 332.246033 962.263068 C318.577454 975.931830 304.868470 989.560492 291.265534 1003.294196 C287.353211 1007.244147 284.052094 1011.837653 279.929566 1015.532111 C273.493622 1021.299628 266.674775 1026.485297 257.679169 1028.083563 C245.258576 1030.290473 234.689393 1027.081244 225.269608 1018.859870 C218.913453 1013.312567 214.963593 1006.579596 212.954636 998.429694 C209.700989 985.230536 214.756531 974.328192 222.053010 964.018134 C223.192582 962.407904 225.112427 961.372138 226.543793 959.942755 C250.479844 936.038275 274.395600 912.113593 298.315949 888.193305 C333.881501 852.627753 369.537171 817.151496 404.966614 781.450873 C418.446808 767.867621 431.414216 753.775092 444.602601 739.902655 C457.102295 726.754584 469.553498 713.560309 482.086030 700.443671 C491.459748 690.633002 500.971436 680.954230 510.345154 671.143622 C522.877686 658.026984 535.322022 644.826178 547.834778 631.690497 C551.723755 627.607916 551.791810 626.338080 547.805115 622.325507 C541.345337 615.823676 534.783143 609.422309 528.386963 602.858954 C522.177613 596.487311 516.122742 589.965155 509.750000 583.259101 z"/>
  <path class="selected" fill="#000000" opacity="1.000000" stroke="none" d=" M1161.000000 1024.009101 C1089.673340 1024.009101 1018.846375 1024.136176 948.020142 1023.968695 C891.829712 1023.835883 835.639771 1023.384711 779.450379 1022.972663 C768.421021 1022.891791 757.326172 1022.990912 746.386597 1021.829474 C735.107728 1020.632025 725.483338 1015.337348 720.130311 1004.819647 C717.076844 998.820014 714.063233 992.297370 713.322693 985.751044 C712.404419 977.633673 715.227173 969.600836 719.906373 962.659552 C726.675110 952.618781 736.078431 946.554694 748.313416 946.099433 C759.687134 945.676337 771.088929 946.009101 782.478394 946.009101 C783.644959 946.009101 784.811463 946.009101 785.978028 946.009101 C888.135071 946.009101 990.292359 945.883185 1092.449097 946.050055 C1170.304078 946.177252 1248.158570 946.621527 1326.012818 947.039862 C1351.873291 947.178839 1377.734498 947.551459 1403.589966 948.079108 C1412.207520 948.254889 1419.447144 952.218451 1426.150391 957.565802 C1440.206543 968.778815 1442.730347 990.479315 1434.973389 1004.601508 C1427.443848 1018.310187 1415.173584 1024.840644 1400.059937 1024.892035 C1324.734620 1025.148261 1249.407837 1025.025092 1174.081666 1024.966498 C1169.887574 1024.963202 1165.693848 1024.342475 1161.000000 1024.009101 z"/>
</svg>
